<?xml version="1.0" encoding="UTF-8"?>
<!DOCTYPE svg PUBLIC "-//W3C//DTD SVG 1.1//EN" "http://www.w3.org/Graphics/SVG/1.1/DTD/svg11.dtd">
<svg xmlns="http://www.w3.org/2000/svg" version="1.1" width="60px" height="40px" style="shape-rendering:geometricPrecision; text-rendering:geometricPrecision; image-rendering:optimizeQuality; fill-rule:evenodd; clip-rule:evenodd" xmlns:xlink="http://www.w3.org/1999/xlink">
<g><path style="opacity:1" fill="#3c3332" d="M 23.5,-0.5 C 31.5,-0.5 39.5,-0.5 47.5,-0.5C 47.5,0.833333 47.5,2.16667 47.5,3.5C 39.5,3.5 31.5,3.5 23.5,3.5C 23.5,2.16667 23.5,0.833333 23.5,-0.5 Z"/></g>
<g><path style="opacity:1" fill="#3c3332" d="M -0.5,3.5 C 3.5,3.5 7.5,3.5 11.5,3.5C 11.5,4.83333 11.5,6.16667 11.5,7.5C 8.83333,7.5 6.16667,7.5 3.5,7.5C 3.5,15.5 3.5,23.5 3.5,31.5C 4.83333,31.5 6.16667,31.5 7.5,31.5C 14.1667,31.5 20.8333,31.5 27.5,31.5C 27.5,32.8333 27.5,34.1667 27.5,35.5C 18.1667,35.5 8.83333,35.5 -0.5,35.5C -0.5,24.8333 -0.5,14.1667 -0.5,3.5 Z"/></g>
<g><path style="opacity:1" fill="#3c3332" d="M 23.5,3.5 C 23.5,4.83333 23.5,6.16667 23.5,7.5C 22.1667,7.5 20.8333,7.5 19.5,7.5C 19.5,6.16667 19.5,4.83333 19.5,3.5C 20.8333,3.5 22.1667,3.5 23.5,3.5 Z"/></g>
<g><path style="opacity:1" fill="#ea9660" d="M 23.5,3.5 C 31.5,3.5 39.5,3.5 47.5,3.5C 47.5,4.83333 47.5,6.16667 47.5,7.5C 39.5,7.5 31.5,7.5 23.5,7.5C 23.5,6.16667 23.5,4.83333 23.5,3.5 Z"/></g>
<g><path style="opacity:1" fill="#3c3332" d="M 47.5,3.5 C 48.8333,3.5 50.1667,3.5 51.5,3.5C 51.5,4.83333 51.5,6.16667 51.5,7.5C 50.1667,7.5 48.8333,7.5 47.5,7.5C 47.5,6.16667 47.5,4.83333 47.5,3.5 Z"/></g>
<g><path style="opacity:1" fill="#ea9660" d="M 11.5,7.5 C 11.5,8.83333 11.5,10.1667 11.5,11.5C 12.8333,11.5 14.1667,11.5 15.5,11.5C 15.5,12.8333 15.5,14.1667 15.5,15.5C 12.8333,15.5 10.1667,15.5 7.5,15.5C 7.5,20.8333 7.5,26.1667 7.5,31.5C 6.16667,31.5 4.83333,31.5 3.5,31.5C 3.5,23.5 3.5,15.5 3.5,7.5C 6.16667,7.5 8.83333,7.5 11.5,7.5 Z"/></g>
<g><path style="opacity:1" fill="#3c3332" d="M 11.5,7.5 C 14.1667,7.5 16.8333,7.5 19.5,7.5C 19.5,8.83333 19.5,10.1667 19.5,11.5C 18.1667,11.5 16.8333,11.5 15.5,11.5C 14.1667,11.5 12.8333,11.5 11.5,11.5C 11.5,10.1667 11.5,8.83333 11.5,7.5 Z"/></g>
<g><path style="opacity:1" fill="#ea9660" d="M 19.5,7.5 C 20.8333,7.5 22.1667,7.5 23.5,7.5C 23.5,8.83333 23.5,10.1667 23.5,11.5C 22.1667,11.5 20.8333,11.5 19.5,11.5C 19.5,10.1667 19.5,8.83333 19.5,7.5 Z"/></g>
<g><path style="opacity:1" fill="#b45944" d="M 23.5,7.5 C 31.5,7.5 39.5,7.5 47.5,7.5C 47.5,8.83333 47.5,10.1667 47.5,11.5C 48.8333,11.5 50.1667,11.5 51.5,11.5C 51.5,12.8333 51.5,14.1667 51.5,15.5C 51.5,16.8333 51.5,18.1667 51.5,19.5C 51.5,20.8333 51.5,22.1667 51.5,23.5C 50.1667,23.5 48.8333,23.5 47.5,23.5C 46.1667,23.5 44.8333,23.5 43.5,23.5C 43.5,22.1667 43.5,20.8333 43.5,19.5C 42.1667,19.5 40.8333,19.5 39.5,19.5C 39.5,18.1667 39.5,16.8333 39.5,15.5C 34.1667,15.5 28.8333,15.5 23.5,15.5C 23.5,18.1667 23.5,20.8333 23.5,23.5C 24.8333,23.5 26.1667,23.5 27.5,23.5C 27.5,26.1667 27.5,28.8333 27.5,31.5C 20.8333,31.5 14.1667,31.5 7.5,31.5C 7.5,26.1667 7.5,20.8333 7.5,15.5C 10.1667,15.5 12.8333,15.5 15.5,15.5C 15.5,14.1667 15.5,12.8333 15.5,11.5C 16.8333,11.5 18.1667,11.5 19.5,11.5C 20.8333,11.5 22.1667,11.5 23.5,11.5C 23.5,10.1667 23.5,8.83333 23.5,7.5 Z"/></g>
<g><path style="opacity:1" fill="#ea9660" d="M 47.5,7.5 C 48.8333,7.5 50.1667,7.5 51.5,7.5C 51.5,8.83333 51.5,10.1667 51.5,11.5C 50.1667,11.5 48.8333,11.5 47.5,11.5C 47.5,10.1667 47.5,8.83333 47.5,7.5 Z"/></g>
<g><path style="opacity:1" fill="#3c3332" d="M 51.5,7.5 C 52.8333,7.5 54.1667,7.5 55.5,7.5C 55.5,8.83333 55.5,10.1667 55.5,11.5C 54.1667,11.5 52.8333,11.5 51.5,11.5C 51.5,10.1667 51.5,8.83333 51.5,7.5 Z"/></g>
<g><path style="opacity:1" fill="#ea9660" d="M 51.5,11.5 C 52.8333,11.5 54.1667,11.5 55.5,11.5C 55.5,12.8333 55.5,14.1667 55.5,15.5C 54.1667,15.5 52.8333,15.5 51.5,15.5C 51.5,14.1667 51.5,12.8333 51.5,11.5 Z"/></g>
<g><path style="opacity:1" fill="#3c3332" d="M 55.5,11.5 C 56.8333,11.5 58.1667,11.5 59.5,11.5C 59.5,12.8333 59.5,14.1667 59.5,15.5C 58.1667,15.5 56.8333,15.5 55.5,15.5C 55.5,14.1667 55.5,12.8333 55.5,11.5 Z"/></g>
<g><path style="opacity:1" fill="#3c3332" d="M 39.5,19.5 C 35.5,19.5 31.5,19.5 27.5,19.5C 27.5,20.8333 27.5,22.1667 27.5,23.5C 26.1667,23.5 24.8333,23.5 23.5,23.5C 23.5,20.8333 23.5,18.1667 23.5,15.5C 28.8333,15.5 34.1667,15.5 39.5,15.5C 39.5,16.8333 39.5,18.1667 39.5,19.5 Z"/></g>
<g><path style="opacity:1" fill="#3c3332" d="M 51.5,15.5 C 52.8333,15.5 54.1667,15.5 55.5,15.5C 55.5,16.8333 55.5,18.1667 55.5,19.5C 54.1667,19.5 52.8333,19.5 51.5,19.5C 51.5,18.1667 51.5,16.8333 51.5,15.5 Z"/></g>
<g><path style="opacity:1" fill="#14233a" d="M 55.5,15.5 C 56.8333,15.5 58.1667,15.5 59.5,15.5C 59.5,16.8333 59.5,18.1667 59.5,19.5C 58.1667,19.5 56.8333,19.5 55.5,19.5C 55.5,18.1667 55.5,16.8333 55.5,15.5 Z"/></g>
<g><path style="opacity:1" fill="#14233a" d="M 39.5,19.5 C 39.5,20.8333 39.5,22.1667 39.5,23.5C 36.8333,23.5 34.1667,23.5 31.5,23.5C 30.1667,23.5 28.8333,23.5 27.5,23.5C 27.5,22.1667 27.5,20.8333 27.5,19.5C 31.5,19.5 35.5,19.5 39.5,19.5 Z"/></g>
<g><path style="opacity:1" fill="#3c3332" d="M 39.5,19.5 C 40.8333,19.5 42.1667,19.5 43.5,19.5C 43.5,20.8333 43.5,22.1667 43.5,23.5C 42.1667,23.5 40.8333,23.5 39.5,23.5C 39.5,22.1667 39.5,20.8333 39.5,19.5 Z"/></g>
<g><path style="opacity:1" fill="#14233a" d="M 51.5,19.5 C 52.8333,19.5 54.1667,19.5 55.5,19.5C 55.5,20.8333 55.5,22.1667 55.5,23.5C 54.1667,23.5 52.8333,23.5 51.5,23.5C 51.5,22.1667 51.5,20.8333 51.5,19.5 Z"/></g>
<g><path style="opacity:1" fill="#3c3332" d="M 27.5,23.5 C 28.8333,23.5 30.1667,23.5 31.5,23.5C 31.5,26.1667 31.5,28.8333 31.5,31.5C 30.1667,31.5 28.8333,31.5 27.5,31.5C 27.5,28.8333 27.5,26.1667 27.5,23.5 Z"/></g>
<g><path style="opacity:1" fill="#14233a" d="M 39.5,23.5 C 40.8333,23.5 42.1667,23.5 43.5,23.5C 43.5,24.8333 43.5,26.1667 43.5,27.5C 42.1667,27.5 40.8333,27.5 39.5,27.5C 39.5,26.1667 39.5,24.8333 39.5,23.5 Z"/></g>
<g><path style="opacity:1" fill="#3c3332" d="M 43.5,23.5 C 44.8333,23.5 46.1667,23.5 47.5,23.5C 47.5,24.8333 47.5,26.1667 47.5,27.5C 46.1667,27.5 44.8333,27.5 43.5,27.5C 43.5,26.1667 43.5,24.8333 43.5,23.5 Z"/></g>
<g><path style="opacity:1" fill="#14233a" d="M 47.5,23.5 C 48.8333,23.5 50.1667,23.5 51.5,23.5C 51.5,24.8333 51.5,26.1667 51.5,27.5C 50.1667,27.5 48.8333,27.5 47.5,27.5C 47.5,26.1667 47.5,24.8333 47.5,23.5 Z"/></g>
<g><path style="opacity:1" fill="#14233a" d="M 43.5,27.5 C 44.8333,27.5 46.1667,27.5 47.5,27.5C 47.5,28.8333 47.5,30.1667 47.5,31.5C 46.1667,31.5 44.8333,31.5 43.5,31.5C 43.5,30.1667 43.5,28.8333 43.5,27.5 Z"/></g>
<g><path style="opacity:1" fill="#14233a" d="M 27.5,31.5 C 28.8333,31.5 30.1667,31.5 31.5,31.5C 31.5,32.8333 31.5,34.1667 31.5,35.5C 30.1667,35.5 28.8333,35.5 27.5,35.5C 27.5,34.1667 27.5,32.8333 27.5,31.5 Z"/></g>
<g><path style="opacity:1" fill="#14233a" d="M -0.5,35.5 C 8.83333,35.5 18.1667,35.5 27.5,35.5C 27.5,36.8333 27.5,38.1667 27.5,39.5C 18.1667,39.5 8.83333,39.5 -0.5,39.5C -0.5,38.1667 -0.5,36.8333 -0.5,35.5 Z"/></g>
</svg>
