<?xml version="1.0" encoding="UTF-8"?>
<svg version="1.1" xmlns="http://www.w3.org/2000/svg" width="45" height="51">
<path d="M0 0 C4.95 0 9.9 0 15 0 C15 0.99 15 1.98 15 3 C16.98 3 18.96 3 21 3 C21 3.99 21 4.98 21 6 C23.97 6 26.94 6 30 6 C30 14.91 30 23.82 30 33 C29.01 33 28.02 33 27 33 C27 34.98 27 36.96 27 39 C26.01 39 25.02 39 24 39 C24 39.99 24 40.98 24 42 C23.01 42 22.02 42 21 42 C21 42.99 21 43.98 21 45 C20.01 45 19.02 45 18 45 C18 45.99 18 46.98 18 48 C16.02 48 14.04 48 12 48 C12 48.99 12 49.98 12 51 C9.03 51 6.06 51 3 51 C3 50.01 3 49.02 3 48 C1.02 48 -0.96 48 -3 48 C-3 47.01 -3 46.02 -3 45 C-3.99 45 -4.98 45 -6 45 C-6 44.01 -6 43.02 -6 42 C-6.99 42 -7.98 42 -9 42 C-9 41.01 -9 40.02 -9 39 C-9.99 39 -10.98 39 -12 39 C-12 37.02 -12 35.04 -12 33 C-12.99 33 -13.98 33 -15 33 C-15 24.09 -15 15.18 -15 6 C-12.03 6 -9.06 6 -6 6 C-6 5.01 -6 4.02 -6 3 C-4.02 3 -2.04 3 0 3 C0 2.01 0 1.02 0 0 Z " fill="#79DDFF" transform="translate(15,0)"/>
<path d="M0 0 C2.97 0 5.94 0 9 0 C9 0.99 9 1.98 9 3 C10.98 3 12.96 3 15 3 C15 3.99 15 4.98 15 6 C15.99 6 16.98 6 18 6 C18 11.94 18 17.88 18 24 C19.98 24 21.96 24 24 24 C24 25.98 24 27.96 24 30 C23.01 30 22.02 30 21 30 C21 30.99 21 31.98 21 33 C20.01 33 19.02 33 18 33 C18 33.99 18 34.98 18 36 C17.01 36 16.02 36 15 36 C15 36.99 15 37.98 15 39 C13.02 39 11.04 39 9 39 C9 39.99 9 40.98 9 42 C6.03 42 3.06 42 0 42 C0 41.01 0 40.02 0 39 C-1.98 39 -3.96 39 -6 39 C-6 38.01 -6 37.02 -6 36 C-1.05 36 3.9 36 9 36 C9 35.01 9 34.02 9 33 C5.04 33 1.08 33 -3 33 C-3 32.01 -3 31.02 -3 30 C-3.99 30 -4.98 30 -6 30 C-6 28.02 -6 26.04 -6 24 C-5.01 24 -4.02 24 -3 24 C-3 24.99 -3 25.98 -3 27 C-0.03 27 2.94 27 6 27 C6 26.01 6 25.02 6 24 C6.99 24 7.98 24 9 24 C9 19.05 9 14.1 9 9 C8.01 9 7.02 9 6 9 C6 8.01 6 7.02 6 6 C5.01 6 4.02 6 3 6 C3 5.01 3 4.02 3 3 C2.01 3 1.02 3 0 3 C0 2.01 0 1.02 0 0 Z " fill="#3CA5F5" transform="translate(18,9)"/>
<path d="M0 0 C0.99 0 1.98 0 3 0 C3 0.99 3 1.98 3 3 C3.99 3 4.98 3 6 3 C6 3.99 6 4.98 6 6 C6.99 6 7.98 6 9 6 C9 10.95 9 15.9 9 21 C8.01 21 7.02 21 6 21 C6 21.99 6 22.98 6 24 C3.03 24 0.06 24 -3 24 C-3 23.01 -3 22.02 -3 21 C-3.99 21 -4.98 21 -6 21 C-6 15.06 -6 9.12 -6 3 C-4.02 3 -2.04 3 0 3 C0 2.01 0 1.02 0 0 Z " fill="#7BDEFF" transform="translate(18,12)"/>
<path d="M0 0 C0.99 0 1.98 0 3 0 C3 5.94 3 11.88 3 18 C4.98 18 6.96 18 9 18 C9 19.98 9 21.96 9 24 C8.01 24 7.02 24 6 24 C6 24.99 6 25.98 6 27 C5.01 27 4.02 27 3 27 C3 27.99 3 28.98 3 30 C2.01 30 1.02 30 0 30 C0 30.99 0 31.98 0 33 C-1.98 33 -3.96 33 -6 33 C-6 33.99 -6 34.98 -6 36 C-8.97 36 -11.94 36 -15 36 C-15 35.01 -15 34.02 -15 33 C-16.98 33 -18.96 33 -21 33 C-21 32.01 -21 31.02 -21 30 C-16.05 30 -11.1 30 -6 30 C-6 29.01 -6 28.02 -6 27 C-4.02 27 -2.04 27 0 27 C0 18.09 0 9.18 0 0 Z " fill="#479BE1" transform="translate(33,15)"/>
<path d="M0 0 C0.99 0 1.98 0 3 0 C3 7.92 3 15.84 3 24 C3.99 24 4.98 24 6 24 C6 24.99 6 25.98 6 27 C9.96 27 13.92 27 18 27 C18 27.99 18 28.98 18 30 C12.06 30 6.12 30 0 30 C0 29.01 0 28.02 0 27 C-0.99 27 -1.98 27 -3 27 C-3 26.01 -3 25.02 -3 24 C-3.99 24 -4.98 24 -6 24 C-6 22.02 -6 20.04 -6 18 C-4.02 18 -2.04 18 0 18 C0 12.06 0 6.12 0 0 Z " fill="#8BC5E5" transform="translate(9,15)"/>
<path d="M0 0 C2.97 0 5.94 0 9 0 C9 8.91 9 17.82 9 27 C8.01 27 7.02 27 6 27 C6 19.08 6 11.16 6 3 C4.02 3 2.04 3 0 3 C0 2.01 0 1.02 0 0 Z " fill="#495698" transform="translate(36,6)"/>
<path d="M0 0 C2.97 0 5.94 0 9 0 C9 0.99 9 1.98 9 3 C7.02 3 5.04 3 3 3 C3 10.92 3 18.84 3 27 C2.01 27 1.02 27 0 27 C0 18.09 0 9.18 0 0 Z " fill="#495698" transform="translate(0,6)"/>
<path d="M0 0 C4.95 0 9.9 0 15 0 C15 0.99 15 1.98 15 3 C16.98 3 18.96 3 21 3 C21 3.99 21 4.98 21 6 C18.03 6 15.06 6 12 6 C12 5.01 12 4.02 12 3 C9.03 3 6.06 3 3 3 C3 3.99 3 4.98 3 6 C0.03 6 -2.94 6 -6 6 C-6 5.01 -6 4.02 -6 3 C-4.02 3 -2.04 3 0 3 C0 2.01 0 1.02 0 0 Z " fill="#495698" transform="translate(15,0)"/>
<path d="M0 0 C6.93 0 13.86 0 21 0 C21 0.99 21 1.98 21 3 C19.02 3 17.04 3 15 3 C15 3.99 15 4.98 15 6 C12.03 6 9.06 6 6 6 C6 5.01 6 4.02 6 3 C4.02 3 2.04 3 0 3 C0 2.01 0 1.02 0 0 Z " fill="#3BADFF" transform="translate(12,45)"/>
<path d="M0 0 C1.98 0 3.96 0 6 0 C6 7.92 6 15.84 6 24 C5.01 24 4.02 24 3 24 C3 17.07 3 10.14 3 3 C2.01 3 1.02 3 0 3 C0 2.01 0 1.02 0 0 Z " fill="#3BADFF" transform="translate(36,9)"/>
<path d="M0 0 C1.98 0 3.96 0 6 0 C6 0.99 6 1.98 6 3 C5.01 3 4.02 3 3 3 C3 9.93 3 16.86 3 24 C2.01 24 1.02 24 0 24 C0 16.08 0 8.16 0 0 Z " fill="#B7F3FF" transform="translate(3,9)"/>
<path d="M0 0 C0.99 0 1.98 0 3 0 C3 0.99 3 1.98 3 3 C3.99 3 4.98 3 6 3 C6 3.99 6 4.98 6 6 C8.97 6 11.94 6 15 6 C15 6.99 15 7.98 15 9 C11.04 9 7.08 9 3 9 C3 8.01 3 7.02 3 6 C2.01 6 1.02 6 0 6 C0 4.02 0 2.04 0 0 Z " fill="#4281CB" transform="translate(12,33)"/>
<path d="M0 0 C1.98 0 3.96 0 6 0 C6 0.99 6 1.98 6 3 C5.01 3 4.02 3 3 3 C3 7.95 3 12.9 3 18 C2.01 18 1.02 18 0 18 C0 12.06 0 6.12 0 0 Z " fill="#B7F3FF" transform="translate(12,15)"/>
<path d="M0 0 C0.99 0 1.98 0 3 0 C3 5.94 3 11.88 3 18 C2.01 18 1.02 18 0 18 C0 12.06 0 6.12 0 0 Z " fill="#495698" transform="translate(33,15)"/>
<path d="M0 0 C0.99 0 1.98 0 3 0 C3 5.94 3 11.88 3 18 C2.01 18 1.02 18 0 18 C0 12.06 0 6.12 0 0 Z " fill="#495698" transform="translate(9,15)"/>
<path d="M0 0 C4.95 0 9.9 0 15 0 C15 0.99 15 1.98 15 3 C10.05 3 5.1 3 0 3 C0 2.01 0 1.02 0 0 Z " fill="#77DDFF" transform="translate(12,42)"/>
<path d="M0 0 C2.97 0 5.94 0 9 0 C9 0.99 9 1.98 9 3 C6.03 3 3.06 3 0 3 C0 2.01 0 1.02 0 0 Z " fill="#495698" transform="translate(18,48)"/>
<path d="M0 0 C2.97 0 5.94 0 9 0 C9 0.99 9 1.98 9 3 C6.03 3 3.06 3 0 3 C0 2.01 0 1.02 0 0 Z " fill="#495698" transform="translate(18,39)"/>
<path d="M0 0 C0.99 0 1.98 0 3 0 C3 1.98 3 3.96 3 6 C1.02 6 -0.96 6 -3 6 C-3 5.01 -3 4.02 -3 3 C-2.01 3 -1.02 3 0 3 C0 2.01 0 1.02 0 0 Z " fill="#77DDFF" transform="translate(30,36)"/>
<path d="M0 0 C2.97 0 5.94 0 9 0 C9 0.99 9 1.98 9 3 C6.03 3 3.06 3 0 3 C0 2.01 0 1.02 0 0 Z " fill="#495698" transform="translate(18,9)"/>
<path d="M0 0 C1.98 0 3.96 0 6 0 C6 0.99 6 1.98 6 3 C4.02 3 2.04 3 0 3 C0 2.01 0 1.02 0 0 Z " fill="#495698" transform="translate(27,45)"/>
<path d="M0 0 C1.98 0 3.96 0 6 0 C6 0.99 6 1.98 6 3 C4.02 3 2.04 3 0 3 C0 2.01 0 1.02 0 0 Z " fill="#495698" transform="translate(12,45)"/>
<path d="M0 0 C1.98 0 3.96 0 6 0 C6 0.99 6 1.98 6 3 C4.02 3 2.04 3 0 3 C0 2.01 0 1.02 0 0 Z " fill="#3BADFF" transform="translate(27,42)"/>
<path d="M0 0 C1.98 0 3.96 0 6 0 C6 0.99 6 1.98 6 3 C4.02 3 2.04 3 0 3 C0 2.01 0 1.02 0 0 Z " fill="#B7F3FF" transform="translate(12,42)"/>
<path d="M0 0 C0.99 0 1.98 0 3 0 C3 1.98 3 3.96 3 6 C2.01 6 1.02 6 0 6 C0 4.02 0 2.04 0 0 Z " fill="#495698" transform="translate(39,33)"/>
<path d="M0 0 C0.99 0 1.98 0 3 0 C3 1.98 3 3.96 3 6 C2.01 6 1.02 6 0 6 C0 4.02 0 2.04 0 0 Z " fill="#495698" transform="translate(3,33)"/>
<path d="M0 0 C1.98 0 3.96 0 6 0 C6 0.99 6 1.98 6 3 C4.02 3 2.04 3 0 3 C0 2.01 0 1.02 0 0 Z " fill="#495698" transform="translate(27,12)"/>
<path d="M0 0 C1.98 0 3.96 0 6 0 C6 0.99 6 1.98 6 3 C4.02 3 2.04 3 0 3 C0 2.01 0 1.02 0 0 Z " fill="#495698" transform="translate(12,12)"/>
<path d="M0 0 C1.98 0 3.96 0 6 0 C6 0.99 6 1.98 6 3 C4.02 3 2.04 3 0 3 C0 2.01 0 1.02 0 0 Z " fill="#3BADFF" transform="translate(30,6)"/>
<path d="M0 0 C1.98 0 3.96 0 6 0 C6 0.99 6 1.98 6 3 C4.02 3 2.04 3 0 3 C0 2.01 0 1.02 0 0 Z " fill="#B7F3FF" transform="translate(9,6)"/>
<path d="M0 0 C1.98 0 3.96 0 6 0 C6 0.99 6 1.98 6 3 C4.02 3 2.04 3 0 3 C0 2.01 0 1.02 0 0 Z " fill="#3BADFF" transform="translate(21,3)"/>
</svg>
