<?xml version="1.0" encoding="UTF-8"?>
<!DOCTYPE svg PUBLIC "-//W3C//DTD SVG 1.1//EN" "http://www.w3.org/Graphics/SVG/1.1/DTD/svg11.dtd">
<svg xmlns="http://www.w3.org/2000/svg" version="1.1" width="56px" height="76px" style="shape-rendering:geometricPrecision; text-rendering:geometricPrecision; image-rendering:optimizeQuality; fill-rule:evenodd; clip-rule:evenodd" xmlns:xlink="http://www.w3.org/1999/xlink">
<g><path style="opacity:1" fill="#495698" d="M 7.5,-0.5 C 22.1667,-0.5 36.8333,-0.5 51.5,-0.5C 51.5,0.833333 51.5,2.16667 51.5,3.5C 48.8333,3.5 46.1667,3.5 43.5,3.5C 39.5,3.5 35.5,3.5 31.5,3.5C 24.8333,3.5 18.1667,3.5 11.5,3.5C 10.1667,3.5 8.83333,3.5 7.5,3.5C 7.5,2.16667 7.5,0.833333 7.5,-0.5 Z"/></g>
<g><path style="opacity:1" fill="#495698" d="M 7.5,3.5 C 7.5,4.83333 7.5,6.16667 7.5,7.5C 6.16667,7.5 4.83333,7.5 3.5,7.5C 3.5,6.16667 3.5,4.83333 3.5,3.5C 4.83333,3.5 6.16667,3.5 7.5,3.5 Z"/></g>
<g><path style="opacity:1" fill="#3badff" d="M 7.5,3.5 C 8.83333,3.5 10.1667,3.5 11.5,3.5C 11.5,4.83333 11.5,6.16667 11.5,7.5C 10.1667,7.5 8.83333,7.5 7.5,7.5C 7.5,6.16667 7.5,4.83333 7.5,3.5 Z"/></g>
<g><path style="opacity:1" fill="#77ddff" d="M 11.5,3.5 C 18.1667,3.5 24.8333,3.5 31.5,3.5C 31.5,4.83333 31.5,6.16667 31.5,7.5C 32.8333,7.5 34.1667,7.5 35.5,7.5C 35.5,10.1667 35.5,12.8333 35.5,15.5C 34.1667,15.5 32.8333,15.5 31.5,15.5C 31.5,16.8333 31.5,18.1667 31.5,19.5C 30.1667,19.5 28.8333,19.5 27.5,19.5C 27.5,18.1667 27.5,16.8333 27.5,15.5C 26.1667,15.5 24.8333,15.5 23.5,15.5C 20.8333,15.5 18.1667,15.5 15.5,15.5C 14.1667,15.5 12.8333,15.5 11.5,15.5C 11.5,16.8333 11.5,18.1667 11.5,19.5C 8.83333,19.5 6.16667,19.5 3.5,19.5C 3.5,16.8333 3.5,14.1667 3.5,11.5C 4.83333,11.5 6.16667,11.5 7.5,11.5C 7.5,10.1667 7.5,8.83333 7.5,7.5C 8.83333,7.5 10.1667,7.5 11.5,7.5C 11.5,6.16667 11.5,4.83333 11.5,3.5 Z"/></g>
<g><path style="opacity:1" fill="#b6f3fe" d="M 31.5,3.5 C 35.5,3.5 39.5,3.5 43.5,3.5C 43.5,6.16667 43.5,8.83333 43.5,11.5C 42.1667,11.5 40.8333,11.5 39.5,11.5C 39.5,12.8333 39.5,14.1667 39.5,15.5C 38.1667,15.5 36.8333,15.5 35.5,15.5C 35.5,12.8333 35.5,10.1667 35.5,7.5C 34.1667,7.5 32.8333,7.5 31.5,7.5C 31.5,6.16667 31.5,4.83333 31.5,3.5 Z"/></g>
<g><path style="opacity:1" fill="#3badff" d="M 43.5,3.5 C 46.1667,3.5 48.8333,3.5 51.5,3.5C 51.5,7.5 51.5,11.5 51.5,15.5C 48.8333,15.5 46.1667,15.5 43.5,15.5C 43.5,16.8333 43.5,18.1667 43.5,19.5C 42.1667,19.5 40.8333,19.5 39.5,19.5C 39.5,35.5 39.5,51.5 39.5,67.5C 38.1667,67.5 36.8333,67.5 35.5,67.5C 35.5,52.8333 35.5,38.1667 35.5,23.5C 34.1667,23.5 32.8333,23.5 31.5,23.5C 30.1667,23.5 28.8333,23.5 27.5,23.5C 27.5,22.1667 27.5,20.8333 27.5,19.5C 28.8333,19.5 30.1667,19.5 31.5,19.5C 32.8333,19.5 34.1667,19.5 35.5,19.5C 35.5,18.1667 35.5,16.8333 35.5,15.5C 36.8333,15.5 38.1667,15.5 39.5,15.5C 39.5,14.1667 39.5,12.8333 39.5,11.5C 40.8333,11.5 42.1667,11.5 43.5,11.5C 43.5,8.83333 43.5,6.16667 43.5,3.5 Z"/></g>
<g><path style="opacity:1" fill="#495698" d="M 51.5,3.5 C 52.8333,3.5 54.1667,3.5 55.5,3.5C 55.5,7.5 55.5,11.5 55.5,15.5C 54.1667,15.5 52.8333,15.5 51.5,15.5C 51.5,11.5 51.5,7.5 51.5,3.5 Z"/></g>
<g><path style="opacity:1" fill="#495698" d="M -0.5,7.5 C 0.833333,7.5 2.16667,7.5 3.5,7.5C 3.5,8.83333 3.5,10.1667 3.5,11.5C 3.5,14.1667 3.5,16.8333 3.5,19.5C 3.5,20.8333 3.5,22.1667 3.5,23.5C 2.16667,23.5 0.833333,23.5 -0.5,23.5C -0.5,18.1667 -0.5,12.8333 -0.5,7.5 Z"/></g>
<g><path style="opacity:1" fill="#3badff" d="M 3.5,7.5 C 4.83333,7.5 6.16667,7.5 7.5,7.5C 7.5,8.83333 7.5,10.1667 7.5,11.5C 6.16667,11.5 4.83333,11.5 3.5,11.5C 3.5,10.1667 3.5,8.83333 3.5,7.5 Z"/></g>
<g><path style="opacity:1" fill="#3badff" d="M 15.5,15.5 C 15.5,16.8333 15.5,18.1667 15.5,19.5C 14.1667,19.5 12.8333,19.5 11.5,19.5C 11.5,18.1667 11.5,16.8333 11.5,15.5C 12.8333,15.5 14.1667,15.5 15.5,15.5 Z"/></g>
<g><path style="opacity:1" fill="#495698" d="M 15.5,15.5 C 18.1667,15.5 20.8333,15.5 23.5,15.5C 23.5,16.8333 23.5,18.1667 23.5,19.5C 20.8333,19.5 18.1667,19.5 15.5,19.5C 15.5,18.1667 15.5,16.8333 15.5,15.5 Z"/></g>
<g><path style="opacity:1" fill="#3badff" d="M 23.5,15.5 C 24.8333,15.5 26.1667,15.5 27.5,15.5C 27.5,16.8333 27.5,18.1667 27.5,19.5C 26.1667,19.5 24.8333,19.5 23.5,19.5C 23.5,18.1667 23.5,16.8333 23.5,15.5 Z"/></g>
<g><path style="opacity:1" fill="#b6f3fe" d="M 35.5,15.5 C 35.5,16.8333 35.5,18.1667 35.5,19.5C 34.1667,19.5 32.8333,19.5 31.5,19.5C 31.5,18.1667 31.5,16.8333 31.5,15.5C 32.8333,15.5 34.1667,15.5 35.5,15.5 Z"/></g>
<g><path style="opacity:1" fill="#495698" d="M 51.5,15.5 C 51.5,16.8333 51.5,18.1667 51.5,19.5C 48.8333,19.5 46.1667,19.5 43.5,19.5C 43.5,18.1667 43.5,16.8333 43.5,15.5C 46.1667,15.5 48.8333,15.5 51.5,15.5 Z"/></g>
<g><path style="opacity:1" fill="#3badff" d="M 3.5,19.5 C 6.16667,19.5 8.83333,19.5 11.5,19.5C 11.5,20.8333 11.5,22.1667 11.5,23.5C 8.83333,23.5 6.16667,23.5 3.5,23.5C 3.5,22.1667 3.5,20.8333 3.5,19.5 Z"/></g>
<g><path style="opacity:1" fill="#495698" d="M 11.5,19.5 C 12.8333,19.5 14.1667,19.5 15.5,19.5C 15.5,22.1667 15.5,24.8333 15.5,27.5C 11.5,27.5 7.5,27.5 3.5,27.5C 3.5,26.1667 3.5,24.8333 3.5,23.5C 6.16667,23.5 8.83333,23.5 11.5,23.5C 11.5,22.1667 11.5,20.8333 11.5,19.5 Z"/></g>
<g><path style="opacity:1" fill="#495698" d="M 23.5,19.5 C 24.8333,19.5 26.1667,19.5 27.5,19.5C 27.5,20.8333 27.5,22.1667 27.5,23.5C 27.5,38.1667 27.5,52.8333 27.5,67.5C 26.1667,67.5 24.8333,67.5 23.5,67.5C 23.5,51.5 23.5,35.5 23.5,19.5 Z"/></g>
<g><path style="opacity:1" fill="#495698" d="M 43.5,19.5 C 43.5,35.5 43.5,51.5 43.5,67.5C 42.1667,67.5 40.8333,67.5 39.5,67.5C 39.5,51.5 39.5,35.5 39.5,19.5C 40.8333,19.5 42.1667,19.5 43.5,19.5 Z"/></g>
<g><path style="opacity:1" fill="#77ddff" d="M 27.5,23.5 C 28.8333,23.5 30.1667,23.5 31.5,23.5C 31.5,38.1667 31.5,52.8333 31.5,67.5C 30.1667,67.5 28.8333,67.5 27.5,67.5C 27.5,52.8333 27.5,38.1667 27.5,23.5 Z"/></g>
<g><path style="opacity:1" fill="#b6f3fe" d="M 31.5,23.5 C 32.8333,23.5 34.1667,23.5 35.5,23.5C 35.5,38.1667 35.5,52.8333 35.5,67.5C 34.1667,67.5 32.8333,67.5 31.5,67.5C 31.5,52.8333 31.5,38.1667 31.5,23.5 Z"/></g>
<g><path style="opacity:1" fill="#495698" d="M 27.5,67.5 C 28.8333,67.5 30.1667,67.5 31.5,67.5C 31.5,68.8333 31.5,70.1667 31.5,71.5C 32.8333,71.5 34.1667,71.5 35.5,71.5C 35.5,70.1667 35.5,68.8333 35.5,67.5C 36.8333,67.5 38.1667,67.5 39.5,67.5C 39.5,70.1667 39.5,72.8333 39.5,75.5C 35.5,75.5 31.5,75.5 27.5,75.5C 27.5,72.8333 27.5,70.1667 27.5,67.5 Z"/></g>
<g><path style="opacity:1" fill="#77ddff" d="M 31.5,67.5 C 32.8333,67.5 34.1667,67.5 35.5,67.5C 35.5,68.8333 35.5,70.1667 35.5,71.5C 34.1667,71.5 32.8333,71.5 31.5,71.5C 31.5,70.1667 31.5,68.8333 31.5,67.5 Z"/></g>
</svg>
