<?xml version="1.0" encoding="UTF-8"?>
<svg version="1.1" xmlns="http://www.w3.org/2000/svg" width="39" height="45">
<path d="M0 0 C10.89 0 21.78 0 33 0 C33 0.99 33 1.98 33 3 C33.99 3 34.98 3 36 3 C36 4.98 36 6.96 36 9 C35.01 9 34.02 9 33 9 C33 9.99 33 10.98 33 12 C31.02 12 29.04 12 27 12 C27 20.91 27 29.82 27 39 C26.01 39 25.02 39 24 39 C24 40.98 24 42.96 24 45 C21.03 45 18.06 45 15 45 C15 43.02 15 41.04 15 39 C14.01 39 13.02 39 12 39 C12 30.09 12 21.18 12 12 C10.02 12 8.04 12 6 12 C6 13.98 6 15.96 6 18 C3.03 18 0.06 18 -3 18 C-3 13.05 -3 8.1 -3 3 C-2.01 3 -1.02 3 0 3 C0 2.01 0 1.02 0 0 Z " fill="#3BADFF" transform="translate(3,0)"/>
<path d="M0 0 C9.9 0 19.8 0 30 0 C30 0.99 30 1.98 30 3 C29.01 3 28.02 3 27 3 C27 3.99 27 4.98 27 6 C26.01 6 25.02 6 24 6 C24 6.99 24 7.98 24 9 C19.05 9 14.1 9 9 9 C9 10.98 9 12.96 9 15 C6.03 15 3.06 15 0 15 C0 10.05 0 5.1 0 0 Z " fill="#70D5FF" transform="translate(0,3)"/>
<path d="M0 0 C1.98 0 3.96 0 6 0 C6 8.91 6 17.82 6 27 C5.01 27 4.02 27 3 27 C3 26.01 3 25.02 3 24 C2.01 24 1.02 24 0 24 C0 16.08 0 8.16 0 0 Z " fill="#AFF0FF" transform="translate(18,15)"/>
<path d="M0 0 C10.89 0 21.78 0 33 0 C33 0.99 33 1.98 33 3 C22.11 3 11.22 3 0 3 C0 2.01 0 1.02 0 0 Z " fill="#495698" transform="translate(3,0)"/>
<path d="M0 0 C0.99 0 1.98 0 3 0 C3 8.91 3 17.82 3 27 C2.01 27 1.02 27 0 27 C0 18.09 0 9.18 0 0 Z " fill="#495698" transform="translate(27,12)"/>
<path d="M0 0 C0.99 0 1.98 0 3 0 C3 8.91 3 17.82 3 27 C2.01 27 1.02 27 0 27 C0 18.09 0 9.18 0 0 Z " fill="#495698" transform="translate(15,12)"/>
<path d="M0 0 C0.99 0 1.98 0 3 0 C3 7.92 3 15.84 3 24 C2.01 24 1.02 24 0 24 C0 16.08 0 8.16 0 0 Z " fill="#77DDFF" transform="translate(18,15)"/>
<path d="M0 0 C0.99 0 1.98 0 3 0 C3 3.96 3 7.92 3 12 C3.99 12 4.98 12 6 12 C6 11.01 6 10.02 6 9 C6.99 9 7.98 9 9 9 C9 10.98 9 12.96 9 15 C6.03 15 3.06 15 0 15 C0 10.05 0 5.1 0 0 Z " fill="#495698" transform="translate(0,3)"/>
<path d="M0 0 C4.95 0 9.9 0 15 0 C15 0.99 15 1.98 15 3 C14.01 3 13.02 3 12 3 C12 3.99 12 4.98 12 6 C11.01 6 10.02 6 9 6 C9 5.01 9 4.02 9 3 C6.03 3 3.06 3 0 3 C0 2.01 0 1.02 0 0 Z " fill="#B7F3FF" transform="translate(15,3)"/>
<path d="M0 0 C0.99 0 1.98 0 3 0 C3 0.99 3 1.98 3 3 C3.99 3 4.98 3 6 3 C6 2.01 6 1.02 6 0 C6.99 0 7.98 0 9 0 C9 1.98 9 3.96 9 6 C6.03 6 3.06 6 0 6 C0 4.02 0 2.04 0 0 Z " fill="#495698" transform="translate(18,39)"/>
<path d="M0 0 C1.98 0 3.96 0 6 0 C6 0.99 6 1.98 6 3 C4.02 3 2.04 3 0 3 C0 2.01 0 1.02 0 0 Z " fill="#495698" transform="translate(30,9)"/>
<path d="M0 0 C1.98 0 3.96 0 6 0 C6 0.99 6 1.98 6 3 C4.02 3 2.04 3 0 3 C0 2.01 0 1.02 0 0 Z " fill="#495698" transform="translate(9,9)"/>
<path d="M0 0 C0.99 0 1.98 0 3 0 C3 1.98 3 3.96 3 6 C2.01 6 1.02 6 0 6 C0 4.02 0 2.04 0 0 Z " fill="#495698" transform="translate(36,3)"/>
</svg>
