<?xml version="1.0" encoding="UTF-8"?>
<svg version="1.1" xmlns="http://www.w3.org/2000/svg" width="63" height="39">
<path d="M0 0 C10.89 0 21.78 0 33 0 C33 0.99 33 1.98 33 3 C33.99 3 34.98 3 36 3 C36 4.98 36 6.96 36 9 C36.99 9 37.98 9 39 9 C39 10.98 39 12.96 39 15 C39.99 15 40.98 15 42 15 C42 16.98 42 18.96 42 21 C42.99 21 43.98 21 45 21 C45 26.94 45 32.88 45 39 C24.21 39 3.42 39 -18 39 C-18 35.04 -18 31.08 -18 27 C-17.01 27 -16.02 27 -15 27 C-15 25.02 -15 23.04 -15 21 C-14.01 21 -13.02 21 -12 21 C-12 19.02 -12 17.04 -12 15 C-11.01 15 -10.02 15 -9 15 C-9 13.02 -9 11.04 -9 9 C-8.01 9 -7.02 9 -6 9 C-6 8.01 -6 7.02 -6 6 C-5.01 6 -4.02 6 -3 6 C-3 5.01 -3 4.02 -3 3 C-2.01 3 -1.02 3 0 3 C0 2.01 0 1.02 0 0 Z " fill="#3BABFD" transform="translate(18,0)"/>
<path d="M0 0 C2.97 0 5.94 0 9 0 C9 0.99 9 1.98 9 3 C9.99 3 10.98 3 12 3 C12 3.99 12 4.98 12 6 C12.99 6 13.98 6 15 6 C15 7.98 15 9.96 15 12 C15.99 12 16.98 12 18 12 C18 13.98 18 15.96 18 18 C18.99 18 19.98 18 21 18 C21 19.98 21 21.96 21 24 C21.99 24 22.98 24 24 24 C24 26.97 24 29.94 24 33 C21.03 33 18.06 33 15 33 C15 31.02 15 29.04 15 27 C14.01 27 13.02 27 12 27 C12 25.02 12 23.04 12 21 C11.01 21 10.02 21 9 21 C9 19.02 9 17.04 9 15 C8.01 15 7.02 15 6 15 C6 14.01 6 13.02 6 12 C5.01 12 4.02 12 3 12 C3 12.99 3 13.98 3 15 C2.01 15 1.02 15 0 15 C0 16.98 0 18.96 0 21 C-0.99 21 -1.98 21 -3 21 C-3 22.98 -3 24.96 -3 27 C-3.99 27 -4.98 27 -6 27 C-6 28.98 -6 30.96 -6 33 C-7.98 33 -9.96 33 -12 33 C-12 28.05 -12 23.1 -12 18 C-11.01 18 -10.02 18 -9 18 C-9 16.02 -9 14.04 -9 12 C-8.01 12 -7.02 12 -6 12 C-6 10.02 -6 8.04 -6 6 C-5.01 6 -4.02 6 -3 6 C-3 5.01 -3 4.02 -3 3 C-2.01 3 -1.02 3 0 3 C0 2.01 0 1.02 0 0 Z " fill="#73D6FB" transform="translate(15,3)"/>
<path d="M0 0 C0.99 0 1.98 0 3 0 C3 0.99 3 1.98 3 3 C3.99 3 4.98 3 6 3 C6 4.98 6 6.96 6 9 C6.99 9 7.98 9 9 9 C9 10.98 9 12.96 9 15 C9.99 15 10.98 15 12 15 C12 16.98 12 18.96 12 21 C14.97 21 17.94 21 21 21 C21 18.03 21 15.06 21 12 C21.99 12 22.98 12 24 12 C24 14.97 24 17.94 24 21 C29.94 21 35.88 21 42 21 C42 16.05 42 11.1 42 6 C42.99 6 43.98 6 45 6 C45 11.94 45 17.88 45 24 C24.21 24 3.42 24 -18 24 C-18 20.04 -18 16.08 -18 12 C-17.01 12 -16.02 12 -15 12 C-15 14.97 -15 17.94 -15 21 C-13.02 21 -11.04 21 -9 21 C-9 19.02 -9 17.04 -9 15 C-8.01 15 -7.02 15 -6 15 C-6 13.02 -6 11.04 -6 9 C-5.01 9 -4.02 9 -3 9 C-3 7.02 -3 5.04 -3 3 C-2.01 3 -1.02 3 0 3 C0 2.01 0 1.02 0 0 Z " fill="#495698" transform="translate(18,15)"/>
<path d="M0 0 C0.99 0 1.98 0 3 0 C3 0.99 3 1.98 3 3 C4.98 3 6.96 3 9 3 C9 2.01 9 1.02 9 0 C9.99 0 10.98 0 12 0 C12 1.98 12 3.96 12 6 C11.01 6 10.02 6 9 6 C9 6.99 9 7.98 9 9 C8.01 9 7.02 9 6 9 C6 10.98 6 12.96 6 15 C5.01 15 4.02 15 3 15 C3 16.98 3 18.96 3 21 C2.01 21 1.02 21 0 21 C0 22.98 0 24.96 0 27 C-1.98 27 -3.96 27 -6 27 C-6 22.05 -6 17.1 -6 12 C-5.01 12 -4.02 12 -3 12 C-3 10.02 -3 8.04 -3 6 C-2.01 6 -1.02 6 0 6 C0 4.02 0 2.04 0 0 Z " fill="#A1EBFF" transform="translate(9,9)"/>
<path d="M0 0 C10.89 0 21.78 0 33 0 C33 0.99 33 1.98 33 3 C25.08 3 17.16 3 9 3 C9 3.99 9 4.98 9 6 C8.01 6 7.02 6 6 6 C6 5.01 6 4.02 6 3 C4.02 3 2.04 3 0 3 C0 2.01 0 1.02 0 0 Z " fill="#495698" transform="translate(18,0)"/>
<path d="M0 0 C0.99 0 1.98 0 3 0 C3 0.99 3 1.98 3 3 C4.98 3 6.96 3 9 3 C9 2.01 9 1.02 9 0 C9.99 0 10.98 0 12 0 C12 1.98 12 3.96 12 6 C11.01 6 10.02 6 9 6 C9 6.99 9 7.98 9 9 C8.01 9 7.02 9 6 9 C6 10.98 6 12.96 6 15 C5.01 15 4.02 15 3 15 C3 12.03 3 9.06 3 6 C2.01 6 1.02 6 0 6 C0 4.02 0 2.04 0 0 Z " fill="#77DDFF" transform="translate(9,9)"/>
<path d="M0 0 C1.98 0 3.96 0 6 0 C6 4.95 6 9.9 6 15 C5.01 15 4.02 15 3 15 C3 12.03 3 9.06 3 6 C2.01 6 1.02 6 0 6 C0 4.02 0 2.04 0 0 Z " fill="#A1EBFF" transform="translate(6,15)"/>
<path d="M0 0 C0.99 0 1.98 0 3 0 C3 1.98 3 3.96 3 6 C2.01 6 1.02 6 0 6 C0 6.99 0 7.98 0 9 C-0.99 9 -1.98 9 -3 9 C-3 7.02 -3 5.04 -3 3 C-2.01 3 -1.02 3 0 3 C0 2.01 0 1.02 0 0 Z " fill="#3BADFF" transform="translate(18,9)"/>
<path d="M0 0 C0.99 0 1.98 0 3 0 C3 2.97 3 5.94 3 9 C2.01 9 1.02 9 0 9 C0 6.03 0 3.06 0 0 Z " fill="#B7F3FF" transform="translate(3,27)"/>
<path d="M0 0 C0.99 0 1.98 0 3 0 C3 1.98 3 3.96 3 6 C2.01 6 1.02 6 0 6 C0 4.02 0 2.04 0 0 Z " fill="#3BADFF" transform="translate(30,30)"/>
<path d="M0 0 C0.99 0 1.98 0 3 0 C3 1.98 3 3.96 3 6 C2.01 6 1.02 6 0 6 C0 4.02 0 2.04 0 0 Z " fill="#3BADFF" transform="translate(6,30)"/>
<path d="M0 0 C0.99 0 1.98 0 3 0 C3 1.98 3 3.96 3 6 C2.01 6 1.02 6 0 6 C0 4.02 0 2.04 0 0 Z " fill="#3BADFF" transform="translate(27,24)"/>
<path d="M0 0 C0.99 0 1.98 0 3 0 C3 1.98 3 3.96 3 6 C2.01 6 1.02 6 0 6 C0 4.02 0 2.04 0 0 Z " fill="#3BADFF" transform="translate(9,24)"/>
<path d="M0 0 C0.99 0 1.98 0 3 0 C3 1.98 3 3.96 3 6 C2.01 6 1.02 6 0 6 C0 4.02 0 2.04 0 0 Z " fill="#77DDFF" transform="translate(57,21)"/>
<path d="M0 0 C0.99 0 1.98 0 3 0 C3 1.98 3 3.96 3 6 C2.01 6 1.02 6 0 6 C0 4.02 0 2.04 0 0 Z " fill="#495698" transform="translate(36,21)"/>
<path d="M0 0 C0.99 0 1.98 0 3 0 C3 1.98 3 3.96 3 6 C2.01 6 1.02 6 0 6 C0 4.02 0 2.04 0 0 Z " fill="#495698" transform="translate(3,21)"/>
<path d="M0 0 C0.99 0 1.98 0 3 0 C3 1.98 3 3.96 3 6 C2.01 6 1.02 6 0 6 C0 4.02 0 2.04 0 0 Z " fill="#3BADFF" transform="translate(24,18)"/>
<path d="M0 0 C0.99 0 1.98 0 3 0 C3 1.98 3 3.96 3 6 C2.01 6 1.02 6 0 6 C0 4.02 0 2.04 0 0 Z " fill="#3BADFF" transform="translate(12,18)"/>
<path d="M0 0 C0.99 0 1.98 0 3 0 C3 1.98 3 3.96 3 6 C2.01 6 1.02 6 0 6 C0 4.02 0 2.04 0 0 Z " fill="#495698" transform="translate(57,15)"/>
<path d="M0 0 C0.99 0 1.98 0 3 0 C3 1.98 3 3.96 3 6 C2.01 6 1.02 6 0 6 C0 4.02 0 2.04 0 0 Z " fill="#77DDFF" transform="translate(54,15)"/>
<path d="M0 0 C0.99 0 1.98 0 3 0 C3 1.98 3 3.96 3 6 C2.01 6 1.02 6 0 6 C0 4.02 0 2.04 0 0 Z " fill="#495698" transform="translate(33,15)"/>
<path d="M0 0 C0.99 0 1.98 0 3 0 C3 1.98 3 3.96 3 6 C2.01 6 1.02 6 0 6 C0 4.02 0 2.04 0 0 Z " fill="#495698" transform="translate(6,15)"/>
<path d="M0 0 C0.99 0 1.98 0 3 0 C3 1.98 3 3.96 3 6 C2.01 6 1.02 6 0 6 C0 4.02 0 2.04 0 0 Z " fill="#495698" transform="translate(54,9)"/>
<path d="M0 0 C0.99 0 1.98 0 3 0 C3 1.98 3 3.96 3 6 C2.01 6 1.02 6 0 6 C0 4.02 0 2.04 0 0 Z " fill="#77DDFF" transform="translate(51,9)"/>
<path d="M0 0 C0.99 0 1.98 0 3 0 C3 1.98 3 3.96 3 6 C2.01 6 1.02 6 0 6 C0 4.02 0 2.04 0 0 Z " fill="#495698" transform="translate(30,9)"/>
<path d="M0 0 C1.98 0 3.96 0 6 0 C6 0.99 6 1.98 6 3 C4.02 3 2.04 3 0 3 C0 2.01 0 1.02 0 0 Z " fill="#97E8FF" transform="translate(12,9)"/>
<path d="M0 0 C0.99 0 1.98 0 3 0 C3 1.98 3 3.96 3 6 C2.01 6 1.02 6 0 6 C0 4.02 0 2.04 0 0 Z " fill="#495698" transform="translate(9,9)"/>
<path d="M0 0 C1.98 0 3.96 0 6 0 C6 0.99 6 1.98 6 3 C4.02 3 2.04 3 0 3 C0 2.01 0 1.02 0 0 Z " fill="#80A4CB" transform="translate(12,6)"/>
<path d="M0 0 C0.99 0 1.98 0 3 0 C3 1.98 3 3.96 3 6 C2.01 6 1.02 6 0 6 C0 4.02 0 2.04 0 0 Z " fill="#495698" transform="translate(51,3)"/>
<path d="M0 0 C0.99 0 1.98 0 3 0 C3 1.98 3 3.96 3 6 C2.01 6 1.02 6 0 6 C0 4.02 0 2.04 0 0 Z " fill="#77DDFF" transform="translate(48,3)"/>
</svg>
