<?xml version="1.0" encoding="UTF-8"?>
<!DOCTYPE svg PUBLIC "-//W3C//DTD SVG 1.1//EN" "http://www.w3.org/Graphics/SVG/1.1/DTD/svg11.dtd">
<svg xmlns="http://www.w3.org/2000/svg" version="1.1" width="88px" height="60px" style="shape-rendering:geometricPrecision; text-rendering:geometricPrecision; image-rendering:optimizeQuality; fill-rule:evenodd; clip-rule:evenodd" xmlns:xlink="http://www.w3.org/1999/xlink">
<g><path style="opacity:1" fill="#495698" d="M 63.5,11.5 C 62.1667,11.5 60.8333,11.5 59.5,11.5C 51.5,11.5 43.5,11.5 35.5,11.5C 35.5,12.8333 35.5,14.1667 35.5,15.5C 35.5,16.8333 35.5,18.1667 35.5,19.5C 34.1667,19.5 32.8333,19.5 31.5,19.5C 31.5,16.8333 31.5,14.1667 31.5,11.5C 30.1667,11.5 28.8333,11.5 27.5,11.5C 26.1667,11.5 24.8333,11.5 23.5,11.5C 23.5,10.1667 23.5,8.83333 23.5,7.5C 36.8333,7.5 50.1667,7.5 63.5,7.5C 63.5,8.83333 63.5,10.1667 63.5,11.5 Z"/></g>
<g><path style="opacity:1" fill="#495698" d="M 23.5,11.5 C 23.5,12.8333 23.5,14.1667 23.5,15.5C 23.5,16.8333 23.5,18.1667 23.5,19.5C 22.1667,19.5 20.8333,19.5 19.5,19.5C 19.5,16.8333 19.5,14.1667 19.5,11.5C 20.8333,11.5 22.1667,11.5 23.5,11.5 Z"/></g>
<g><path style="opacity:1" fill="#b6f3fe" d="M 23.5,11.5 C 24.8333,11.5 26.1667,11.5 27.5,11.5C 27.5,12.8333 27.5,14.1667 27.5,15.5C 26.1667,15.5 24.8333,15.5 23.5,15.5C 23.5,14.1667 23.5,12.8333 23.5,11.5 Z"/></g>
<g><path style="opacity:1" fill="#77ddff" d="M 27.5,11.5 C 28.8333,11.5 30.1667,11.5 31.5,11.5C 31.5,14.1667 31.5,16.8333 31.5,19.5C 32.8333,19.5 34.1667,19.5 35.5,19.5C 35.5,20.8333 35.5,22.1667 35.5,23.5C 36.8333,23.5 38.1667,23.5 39.5,23.5C 39.5,26.1667 39.5,28.8333 39.5,31.5C 40.8333,31.5 42.1667,31.5 43.5,31.5C 43.5,34.1667 43.5,36.8333 43.5,39.5C 44.8333,39.5 46.1667,39.5 47.5,39.5C 47.5,43.5 47.5,47.5 47.5,51.5C 43.5,51.5 39.5,51.5 35.5,51.5C 35.5,48.8333 35.5,46.1667 35.5,43.5C 34.1667,43.5 32.8333,43.5 31.5,43.5C 31.5,40.8333 31.5,38.1667 31.5,35.5C 30.1667,35.5 28.8333,35.5 27.5,35.5C 27.5,32.8333 27.5,30.1667 27.5,27.5C 27.5,26.1667 27.5,24.8333 27.5,23.5C 26.1667,23.5 24.8333,23.5 23.5,23.5C 23.5,22.1667 23.5,20.8333 23.5,19.5C 23.5,18.1667 23.5,16.8333 23.5,15.5C 24.8333,15.5 26.1667,15.5 27.5,15.5C 27.5,14.1667 27.5,12.8333 27.5,11.5 Z"/></g>
<g><path style="opacity:1" fill="#3badff" d="M 59.5,11.5 C 59.5,12.8333 59.5,14.1667 59.5,15.5C 60.8333,15.5 62.1667,15.5 63.5,15.5C 63.5,16.8333 63.5,18.1667 63.5,19.5C 63.5,20.8333 63.5,22.1667 63.5,23.5C 64.8333,23.5 66.1667,23.5 67.5,23.5C 67.5,24.8333 67.5,26.1667 67.5,27.5C 68.8333,27.5 70.1667,27.5 71.5,27.5C 71.5,28.8333 71.5,30.1667 71.5,31.5C 71.5,32.8333 71.5,34.1667 71.5,35.5C 72.8333,35.5 74.1667,35.5 75.5,35.5C 75.5,36.8333 75.5,38.1667 75.5,39.5C 75.5,40.8333 75.5,42.1667 75.5,43.5C 76.8333,43.5 78.1667,43.5 79.5,43.5C 79.5,46.1667 79.5,48.8333 79.5,51.5C 70.1667,51.5 60.8333,51.5 51.5,51.5C 51.5,47.5 51.5,43.5 51.5,39.5C 51.5,36.8333 51.5,34.1667 51.5,31.5C 50.1667,31.5 48.8333,31.5 47.5,31.5C 47.5,28.8333 47.5,26.1667 47.5,23.5C 46.1667,23.5 44.8333,23.5 43.5,23.5C 43.5,22.1667 43.5,20.8333 43.5,19.5C 42.1667,19.5 40.8333,19.5 39.5,19.5C 39.5,18.1667 39.5,16.8333 39.5,15.5C 38.1667,15.5 36.8333,15.5 35.5,15.5C 35.5,14.1667 35.5,12.8333 35.5,11.5C 43.5,11.5 51.5,11.5 59.5,11.5 Z"/></g>
<g><path style="opacity:1" fill="#77ddff" d="M 59.5,11.5 C 60.8333,11.5 62.1667,11.5 63.5,11.5C 63.5,12.8333 63.5,14.1667 63.5,15.5C 62.1667,15.5 60.8333,15.5 59.5,15.5C 59.5,14.1667 59.5,12.8333 59.5,11.5 Z"/></g>
<g><path style="opacity:1" fill="#495698" d="M 63.5,11.5 C 64.8333,11.5 66.1667,11.5 67.5,11.5C 67.5,14.1667 67.5,16.8333 67.5,19.5C 66.1667,19.5 64.8333,19.5 63.5,19.5C 63.5,18.1667 63.5,16.8333 63.5,15.5C 63.5,14.1667 63.5,12.8333 63.5,11.5 Z"/></g>
<g><path style="opacity:1" fill="#77ddff" d="M 35.5,15.5 C 36.8333,15.5 38.1667,15.5 39.5,15.5C 39.5,16.8333 39.5,18.1667 39.5,19.5C 38.1667,19.5 36.8333,19.5 35.5,19.5C 35.5,18.1667 35.5,16.8333 35.5,15.5 Z"/></g>
<g><path style="opacity:1" fill="#495698" d="M 19.5,19.5 C 19.5,20.8333 19.5,22.1667 19.5,23.5C 18.1667,23.5 16.8333,23.5 15.5,23.5C 15.5,22.1667 15.5,20.8333 15.5,19.5C 16.8333,19.5 18.1667,19.5 19.5,19.5 Z"/></g>
<g><path style="opacity:1" fill="#b6f3fe" d="M 19.5,19.5 C 20.8333,19.5 22.1667,19.5 23.5,19.5C 23.5,20.8333 23.5,22.1667 23.5,23.5C 22.1667,23.5 20.8333,23.5 19.5,23.5C 19.5,22.1667 19.5,20.8333 19.5,19.5 Z"/></g>
<g><path style="opacity:1" fill="#495698" d="M 35.5,19.5 C 36.8333,19.5 38.1667,19.5 39.5,19.5C 39.5,20.8333 39.5,22.1667 39.5,23.5C 38.1667,23.5 36.8333,23.5 35.5,23.5C 35.5,22.1667 35.5,20.8333 35.5,19.5 Z"/></g>
<g><path style="opacity:1" fill="#77ddff" d="M 39.5,19.5 C 40.8333,19.5 42.1667,19.5 43.5,19.5C 43.5,20.8333 43.5,22.1667 43.5,23.5C 42.1667,23.5 40.8333,23.5 39.5,23.5C 39.5,22.1667 39.5,20.8333 39.5,19.5 Z"/></g>
<g><path style="opacity:1" fill="#77ddff" d="M 63.5,19.5 C 64.8333,19.5 66.1667,19.5 67.5,19.5C 67.5,20.8333 67.5,22.1667 67.5,23.5C 66.1667,23.5 64.8333,23.5 63.5,23.5C 63.5,22.1667 63.5,20.8333 63.5,19.5 Z"/></g>
<g><path style="opacity:1" fill="#495698" d="M 67.5,19.5 C 68.8333,19.5 70.1667,19.5 71.5,19.5C 71.5,20.8333 71.5,22.1667 71.5,23.5C 70.1667,23.5 68.8333,23.5 67.5,23.5C 67.5,22.1667 67.5,20.8333 67.5,19.5 Z"/></g>
<g><path style="opacity:1" fill="#495698" d="M 15.5,23.5 C 15.5,26.1667 15.5,28.8333 15.5,31.5C 14.1667,31.5 12.8333,31.5 11.5,31.5C 11.5,28.8333 11.5,26.1667 11.5,23.5C 12.8333,23.5 14.1667,23.5 15.5,23.5 Z"/></g>
<g><path style="opacity:1" fill="#b6f3fe" d="M 15.5,23.5 C 16.8333,23.5 18.1667,23.5 19.5,23.5C 19.5,24.8333 19.5,26.1667 19.5,27.5C 19.5,28.8333 19.5,30.1667 19.5,31.5C 18.1667,31.5 16.8333,31.5 15.5,31.5C 15.5,28.8333 15.5,26.1667 15.5,23.5 Z"/></g>
<g><path style="opacity:1" fill="#77ddff" d="M 19.5,23.5 C 20.8333,23.5 22.1667,23.5 23.5,23.5C 23.5,24.8333 23.5,26.1667 23.5,27.5C 22.1667,27.5 20.8333,27.5 19.5,27.5C 19.5,26.1667 19.5,24.8333 19.5,23.5 Z"/></g>
<g><path style="opacity:1" fill="#3badff" d="M 23.5,23.5 C 24.8333,23.5 26.1667,23.5 27.5,23.5C 27.5,24.8333 27.5,26.1667 27.5,27.5C 26.1667,27.5 24.8333,27.5 23.5,27.5C 23.5,26.1667 23.5,24.8333 23.5,23.5 Z"/></g>
<g><path style="opacity:1" fill="#495698" d="M 39.5,23.5 C 40.8333,23.5 42.1667,23.5 43.5,23.5C 43.5,26.1667 43.5,28.8333 43.5,31.5C 42.1667,31.5 40.8333,31.5 39.5,31.5C 39.5,28.8333 39.5,26.1667 39.5,23.5 Z"/></g>
<g><path style="opacity:1" fill="#77ddff" d="M 43.5,23.5 C 44.8333,23.5 46.1667,23.5 47.5,23.5C 47.5,26.1667 47.5,28.8333 47.5,31.5C 46.1667,31.5 44.8333,31.5 43.5,31.5C 43.5,28.8333 43.5,26.1667 43.5,23.5 Z"/></g>
<g><path style="opacity:1" fill="#77ddff" d="M 67.5,23.5 C 68.8333,23.5 70.1667,23.5 71.5,23.5C 71.5,24.8333 71.5,26.1667 71.5,27.5C 70.1667,27.5 68.8333,27.5 67.5,27.5C 67.5,26.1667 67.5,24.8333 67.5,23.5 Z"/></g>
<g><path style="opacity:1" fill="#495698" d="M 71.5,23.5 C 72.8333,23.5 74.1667,23.5 75.5,23.5C 75.5,26.1667 75.5,28.8333 75.5,31.5C 74.1667,31.5 72.8333,31.5 71.5,31.5C 71.5,30.1667 71.5,28.8333 71.5,27.5C 71.5,26.1667 71.5,24.8333 71.5,23.5 Z"/></g>
<g><path style="opacity:1" fill="#3badff" d="M 19.5,27.5 C 20.8333,27.5 22.1667,27.5 23.5,27.5C 23.5,30.1667 23.5,32.8333 23.5,35.5C 22.1667,35.5 20.8333,35.5 19.5,35.5C 19.5,34.1667 19.5,32.8333 19.5,31.5C 19.5,30.1667 19.5,28.8333 19.5,27.5 Z"/></g>
<g><path style="opacity:1" fill="#495698" d="M 23.5,27.5 C 24.8333,27.5 26.1667,27.5 27.5,27.5C 27.5,30.1667 27.5,32.8333 27.5,35.5C 28.8333,35.5 30.1667,35.5 31.5,35.5C 31.5,38.1667 31.5,40.8333 31.5,43.5C 32.8333,43.5 34.1667,43.5 35.5,43.5C 35.5,46.1667 35.5,48.8333 35.5,51.5C 39.5,51.5 43.5,51.5 47.5,51.5C 47.5,47.5 47.5,43.5 47.5,39.5C 48.8333,39.5 50.1667,39.5 51.5,39.5C 51.5,43.5 51.5,47.5 51.5,51.5C 60.8333,51.5 70.1667,51.5 79.5,51.5C 79.5,48.8333 79.5,46.1667 79.5,43.5C 79.5,42.1667 79.5,40.8333 79.5,39.5C 80.8333,39.5 82.1667,39.5 83.5,39.5C 83.5,44.8333 83.5,50.1667 83.5,55.5C 58.1667,55.5 32.8333,55.5 7.5,55.5C 7.5,54.1667 7.5,52.8333 7.5,51.5C 8.83333,51.5 10.1667,51.5 11.5,51.5C 12.8333,51.5 14.1667,51.5 15.5,51.5C 15.5,48.8333 15.5,46.1667 15.5,43.5C 16.8333,43.5 18.1667,43.5 19.5,43.5C 19.5,40.8333 19.5,38.1667 19.5,35.5C 20.8333,35.5 22.1667,35.5 23.5,35.5C 23.5,32.8333 23.5,30.1667 23.5,27.5 Z"/></g>
<g><path style="opacity:1" fill="#495698" d="M 11.5,31.5 C 11.5,34.1667 11.5,36.8333 11.5,39.5C 10.1667,39.5 8.83333,39.5 7.5,39.5C 7.5,36.8333 7.5,34.1667 7.5,31.5C 8.83333,31.5 10.1667,31.5 11.5,31.5 Z"/></g>
<g><path style="opacity:1" fill="#b6f3fe" d="M 11.5,31.5 C 12.8333,31.5 14.1667,31.5 15.5,31.5C 15.5,32.8333 15.5,34.1667 15.5,35.5C 15.5,36.8333 15.5,38.1667 15.5,39.5C 14.1667,39.5 12.8333,39.5 11.5,39.5C 11.5,36.8333 11.5,34.1667 11.5,31.5 Z"/></g>
<g><path style="opacity:1" fill="#77ddff" d="M 15.5,31.5 C 16.8333,31.5 18.1667,31.5 19.5,31.5C 19.5,32.8333 19.5,34.1667 19.5,35.5C 18.1667,35.5 16.8333,35.5 15.5,35.5C 15.5,34.1667 15.5,32.8333 15.5,31.5 Z"/></g>
<g><path style="opacity:1" fill="#495698" d="M 43.5,31.5 C 44.8333,31.5 46.1667,31.5 47.5,31.5C 47.5,34.1667 47.5,36.8333 47.5,39.5C 46.1667,39.5 44.8333,39.5 43.5,39.5C 43.5,36.8333 43.5,34.1667 43.5,31.5 Z"/></g>
<g><path style="opacity:1" fill="#77ddff" d="M 47.5,31.5 C 48.8333,31.5 50.1667,31.5 51.5,31.5C 51.5,34.1667 51.5,36.8333 51.5,39.5C 50.1667,39.5 48.8333,39.5 47.5,39.5C 47.5,36.8333 47.5,34.1667 47.5,31.5 Z"/></g>
<g><path style="opacity:1" fill="#77ddff" d="M 71.5,31.5 C 72.8333,31.5 74.1667,31.5 75.5,31.5C 75.5,32.8333 75.5,34.1667 75.5,35.5C 74.1667,35.5 72.8333,35.5 71.5,35.5C 71.5,34.1667 71.5,32.8333 71.5,31.5 Z"/></g>
<g><path style="opacity:1" fill="#495698" d="M 75.5,31.5 C 76.8333,31.5 78.1667,31.5 79.5,31.5C 79.5,34.1667 79.5,36.8333 79.5,39.5C 78.1667,39.5 76.8333,39.5 75.5,39.5C 75.5,38.1667 75.5,36.8333 75.5,35.5C 75.5,34.1667 75.5,32.8333 75.5,31.5 Z"/></g>
<g><path style="opacity:1" fill="#3badff" d="M 15.5,35.5 C 16.8333,35.5 18.1667,35.5 19.5,35.5C 19.5,38.1667 19.5,40.8333 19.5,43.5C 18.1667,43.5 16.8333,43.5 15.5,43.5C 15.5,42.1667 15.5,40.8333 15.5,39.5C 15.5,38.1667 15.5,36.8333 15.5,35.5 Z"/></g>
<g><path style="opacity:1" fill="#495698" d="M 7.5,39.5 C 7.5,43.5 7.5,47.5 7.5,51.5C 6.16667,51.5 4.83333,51.5 3.5,51.5C 3.5,47.5 3.5,43.5 3.5,39.5C 4.83333,39.5 6.16667,39.5 7.5,39.5 Z"/></g>
<g><path style="opacity:1" fill="#b6f3fe" d="M 7.5,39.5 C 8.83333,39.5 10.1667,39.5 11.5,39.5C 11.5,40.8333 11.5,42.1667 11.5,43.5C 11.5,46.1667 11.5,48.8333 11.5,51.5C 10.1667,51.5 8.83333,51.5 7.5,51.5C 7.5,47.5 7.5,43.5 7.5,39.5 Z"/></g>
<g><path style="opacity:1" fill="#77ddff" d="M 11.5,39.5 C 12.8333,39.5 14.1667,39.5 15.5,39.5C 15.5,40.8333 15.5,42.1667 15.5,43.5C 14.1667,43.5 12.8333,43.5 11.5,43.5C 11.5,42.1667 11.5,40.8333 11.5,39.5 Z"/></g>
<g><path style="opacity:1" fill="#77ddff" d="M 75.5,39.5 C 76.8333,39.5 78.1667,39.5 79.5,39.5C 79.5,40.8333 79.5,42.1667 79.5,43.5C 78.1667,43.5 76.8333,43.5 75.5,43.5C 75.5,42.1667 75.5,40.8333 75.5,39.5 Z"/></g>
<g><path style="opacity:1" fill="#3badff" d="M 11.5,43.5 C 12.8333,43.5 14.1667,43.5 15.5,43.5C 15.5,46.1667 15.5,48.8333 15.5,51.5C 14.1667,51.5 12.8333,51.5 11.5,51.5C 11.5,48.8333 11.5,46.1667 11.5,43.5 Z"/></g>
</svg>
